<mxfile host="65bd71144e">
    <diagram id="rlefr9psPY-u2lwZT7uz" name="Page-1">
        <mxGraphModel dx="1511" dy="1879" grid="1" gridSize="10" guides="1" tooltips="1" connect="1" arrows="1" fold="1" page="1" pageScale="1" pageWidth="850" pageHeight="1100" math="0" shadow="0">
            <root>
                <mxCell id="0"/>
                <mxCell id="1" parent="0"/>
                <mxCell id="105" value="" style="group" vertex="1" connectable="0" parent="1">
                    <mxGeometry x="-62.52" y="440" width="90" height="90" as="geometry"/>
                </mxCell>
                <mxCell id="106" value="" style="ellipse;whiteSpace=wrap;html=1;aspect=fixed;" vertex="1" parent="105">
                    <mxGeometry width="90" height="90" as="geometry"/>
                </mxCell>
                <mxCell id="107" value="q13" style="ellipse;whiteSpace=wrap;html=1;aspect=fixed;" vertex="1" parent="105">
                    <mxGeometry x="5" y="5" width="80" height="80" as="geometry"/>
                </mxCell>
                <mxCell id="110" value="3" style="edgeStyle=none;html=1;" edge="1" parent="105" source="107" target="107">
                    <mxGeometry x="-0.3244" y="5" relative="1" as="geometry">
                        <mxPoint as="offset"/>
                    </mxGeometry>
                </mxCell>
                <mxCell id="69" value="" style="group" vertex="1" connectable="0" parent="1">
                    <mxGeometry x="67.47999999999999" y="440" width="90" height="90" as="geometry"/>
                </mxCell>
                <mxCell id="70" value="" style="ellipse;whiteSpace=wrap;html=1;aspect=fixed;" vertex="1" parent="69">
                    <mxGeometry width="90" height="90" as="geometry"/>
                </mxCell>
                <mxCell id="71" value="q14" style="ellipse;whiteSpace=wrap;html=1;aspect=fixed;" vertex="1" parent="69">
                    <mxGeometry x="5" y="5" width="80" height="80" as="geometry"/>
                </mxCell>
                <mxCell id="43" value="1-3" style="edgeStyle=none;html=1;" edge="1" parent="1" source="2" target="42">
                    <mxGeometry relative="1" as="geometry"/>
                </mxCell>
                <mxCell id="2" value="q0" style="ellipse;whiteSpace=wrap;html=1;aspect=fixed;" vertex="1" parent="1">
                    <mxGeometry x="290" y="10" width="80" height="80" as="geometry"/>
                </mxCell>
                <mxCell id="52" value="" style="edgeStyle=none;html=1;" edge="1" parent="1" source="42" target="51">
                    <mxGeometry relative="1" as="geometry"/>
                </mxCell>
                <mxCell id="57" value="3" style="edgeLabel;html=1;align=center;verticalAlign=middle;resizable=0;points=[];" vertex="1" connectable="0" parent="52">
                    <mxGeometry x="-0.1247" y="-4" relative="1" as="geometry">
                        <mxPoint x="-1" y="1" as="offset"/>
                    </mxGeometry>
                </mxCell>
                <mxCell id="170" value="2" style="edgeStyle=none;html=1;" edge="1" parent="1" source="42" target="159">
                    <mxGeometry relative="1" as="geometry"/>
                </mxCell>
                <mxCell id="195" style="edgeStyle=none;html=1;" edge="1" parent="1" source="42" target="184">
                    <mxGeometry relative="1" as="geometry"/>
                </mxCell>
                <mxCell id="198" value="1" style="edgeLabel;html=1;align=center;verticalAlign=middle;resizable=0;points=[];" vertex="1" connectable="0" parent="195">
                    <mxGeometry x="-0.0666" y="1" relative="1" as="geometry">
                        <mxPoint as="offset"/>
                    </mxGeometry>
                </mxCell>
                <mxCell id="42" value="q1" style="ellipse;whiteSpace=wrap;html=1;aspect=fixed;" vertex="1" parent="1">
                    <mxGeometry x="290" y="180" width="80" height="80" as="geometry"/>
                </mxCell>
                <mxCell id="90" value="1, 2" style="edgeStyle=none;html=1;" edge="1" parent="1" source="51" target="71">
                    <mxGeometry relative="1" as="geometry"/>
                </mxCell>
                <mxCell id="108" style="edgeStyle=none;html=1;" edge="1" parent="1" source="51" target="107">
                    <mxGeometry relative="1" as="geometry"/>
                </mxCell>
                <mxCell id="109" value="3" style="edgeLabel;html=1;align=center;verticalAlign=middle;resizable=0;points=[];" vertex="1" connectable="0" parent="108">
                    <mxGeometry x="-0.2803" relative="1" as="geometry">
                        <mxPoint as="offset"/>
                    </mxGeometry>
                </mxCell>
                <mxCell id="51" value="q4" style="ellipse;whiteSpace=wrap;html=1;aspect=fixed;" vertex="1" parent="1">
                    <mxGeometry x="7.479999999999997" y="310" width="80" height="80" as="geometry"/>
                </mxCell>
                <mxCell id="58" value="" style="endArrow=classic;html=1;entryX=0.5;entryY=0;entryDx=0;entryDy=0;" edge="1" parent="1" target="2">
                    <mxGeometry width="50" height="50" relative="1" as="geometry">
                        <mxPoint x="330" y="-50" as="sourcePoint"/>
                        <mxPoint x="320" y="170" as="targetPoint"/>
                    </mxGeometry>
                </mxCell>
                <mxCell id="123" value="3" style="edgeStyle=none;html=1;" edge="1" parent="1" source="99" target="101">
                    <mxGeometry relative="1" as="geometry"/>
                </mxCell>
                <mxCell id="99" value="q16" style="ellipse;whiteSpace=wrap;html=1;aspect=fixed;" vertex="1" parent="1">
                    <mxGeometry x="72.47999999999999" y="580" width="80" height="80" as="geometry"/>
                </mxCell>
                <mxCell id="100" value="1, 2" style="edgeStyle=none;html=1;" edge="1" parent="1" source="71" target="99">
                    <mxGeometry relative="1" as="geometry"/>
                </mxCell>
                <mxCell id="119" style="edgeStyle=none;html=1;" edge="1" parent="1" source="101" target="107">
                    <mxGeometry relative="1" as="geometry"/>
                </mxCell>
                <mxCell id="120" value="3" style="edgeLabel;html=1;align=center;verticalAlign=middle;resizable=0;points=[];" vertex="1" connectable="0" parent="119">
                    <mxGeometry x="-0.2364" y="2" relative="1" as="geometry">
                        <mxPoint as="offset"/>
                    </mxGeometry>
                </mxCell>
                <mxCell id="121" value="1, 2" style="edgeStyle=none;html=1;" edge="1" parent="1" source="101" target="71">
                    <mxGeometry relative="1" as="geometry">
                        <Array as="points">
                            <mxPoint x="57.48" y="560"/>
                        </Array>
                    </mxGeometry>
                </mxCell>
                <mxCell id="101" value="q15" style="ellipse;whiteSpace=wrap;html=1;aspect=fixed;" vertex="1" parent="1">
                    <mxGeometry x="-57.52" y="580" width="80" height="80" as="geometry"/>
                </mxCell>
                <mxCell id="117" style="edgeStyle=none;html=1;" edge="1" parent="1" source="71" target="101">
                    <mxGeometry relative="1" as="geometry">
                        <Array as="points">
                            <mxPoint x="37.48" y="550"/>
                        </Array>
                    </mxGeometry>
                </mxCell>
                <mxCell id="118" value="3" style="edgeLabel;html=1;align=center;verticalAlign=middle;resizable=0;points=[];" vertex="1" connectable="0" parent="117">
                    <mxGeometry x="-0.1915" y="-2" relative="1" as="geometry">
                        <mxPoint y="1" as="offset"/>
                    </mxGeometry>
                </mxCell>
                <mxCell id="124" value="1, 2" style="edgeStyle=none;html=1;" edge="1" parent="1" source="99" target="99">
                    <mxGeometry y="15" relative="1" as="geometry">
                        <mxPoint as="offset"/>
                    </mxGeometry>
                </mxCell>
                <mxCell id="126" value="1, 2" style="edgeStyle=none;html=1;" edge="1" parent="1" source="107" target="71">
                    <mxGeometry relative="1" as="geometry">
                        <Array as="points">
                            <mxPoint x="47.48" y="450"/>
                        </Array>
                    </mxGeometry>
                </mxCell>
                <mxCell id="149" value="" style="group" vertex="1" connectable="0" parent="1">
                    <mxGeometry x="220" y="440" width="90" height="90" as="geometry"/>
                </mxCell>
                <mxCell id="150" value="" style="ellipse;whiteSpace=wrap;html=1;aspect=fixed;" vertex="1" parent="149">
                    <mxGeometry width="90" height="90" as="geometry"/>
                </mxCell>
                <mxCell id="151" value="q9" style="ellipse;whiteSpace=wrap;html=1;aspect=fixed;" vertex="1" parent="149">
                    <mxGeometry x="5" y="5" width="80" height="80" as="geometry"/>
                </mxCell>
                <mxCell id="152" value="2" style="edgeStyle=none;html=1;" edge="1" parent="149" source="151" target="151">
                    <mxGeometry x="-0.3244" y="5" relative="1" as="geometry">
                        <mxPoint as="offset"/>
                    </mxGeometry>
                </mxCell>
                <mxCell id="153" value="" style="group" vertex="1" connectable="0" parent="1">
                    <mxGeometry x="350" y="440" width="90" height="90" as="geometry"/>
                </mxCell>
                <mxCell id="154" value="" style="ellipse;whiteSpace=wrap;html=1;aspect=fixed;" vertex="1" parent="153">
                    <mxGeometry width="90" height="90" as="geometry"/>
                </mxCell>
                <mxCell id="155" value="q10" style="ellipse;whiteSpace=wrap;html=1;aspect=fixed;" vertex="1" parent="153">
                    <mxGeometry x="5" y="5" width="80" height="80" as="geometry"/>
                </mxCell>
                <mxCell id="156" value="1, 3" style="edgeStyle=none;html=1;" edge="1" parent="1" source="159" target="155">
                    <mxGeometry relative="1" as="geometry"/>
                </mxCell>
                <mxCell id="157" value="2" style="edgeStyle=none;html=1;" edge="1" parent="1" source="159" target="151">
                    <mxGeometry relative="1" as="geometry"/>
                </mxCell>
                <mxCell id="159" value="q3" style="ellipse;whiteSpace=wrap;html=1;aspect=fixed;" vertex="1" parent="1">
                    <mxGeometry x="290" y="310" width="80" height="80" as="geometry"/>
                </mxCell>
                <mxCell id="160" value="2" style="edgeStyle=none;html=1;" edge="1" parent="1" source="161" target="166">
                    <mxGeometry relative="1" as="geometry"/>
                </mxCell>
                <mxCell id="161" value="q11" style="ellipse;whiteSpace=wrap;html=1;aspect=fixed;" vertex="1" parent="1">
                    <mxGeometry x="355" y="580" width="80" height="80" as="geometry"/>
                </mxCell>
                <mxCell id="162" value="1, 3" style="edgeStyle=none;html=1;" edge="1" parent="1" source="155" target="161">
                    <mxGeometry relative="1" as="geometry"/>
                </mxCell>
                <mxCell id="163" value="2" style="edgeStyle=none;html=1;" edge="1" parent="1" source="166" target="151">
                    <mxGeometry relative="1" as="geometry"/>
                </mxCell>
                <mxCell id="165" value="1, 3" style="edgeStyle=none;html=1;" edge="1" parent="1" source="166" target="155">
                    <mxGeometry relative="1" as="geometry">
                        <Array as="points">
                            <mxPoint x="340" y="560"/>
                        </Array>
                    </mxGeometry>
                </mxCell>
                <mxCell id="166" value="q12" style="ellipse;whiteSpace=wrap;html=1;aspect=fixed;" vertex="1" parent="1">
                    <mxGeometry x="225" y="580" width="80" height="80" as="geometry"/>
                </mxCell>
                <mxCell id="167" value="2" style="edgeStyle=none;html=1;" edge="1" parent="1" source="155" target="166">
                    <mxGeometry relative="1" as="geometry">
                        <Array as="points">
                            <mxPoint x="320" y="550"/>
                        </Array>
                    </mxGeometry>
                </mxCell>
                <mxCell id="169" value="1, 3" style="edgeStyle=none;html=1;" edge="1" parent="1" source="151" target="155">
                    <mxGeometry x="0.0052" relative="1" as="geometry">
                        <Array as="points">
                            <mxPoint x="330" y="450"/>
                        </Array>
                        <mxPoint as="offset"/>
                    </mxGeometry>
                </mxCell>
                <mxCell id="174" value="" style="group" vertex="1" connectable="0" parent="1">
                    <mxGeometry x="490" y="440" width="90" height="90" as="geometry"/>
                </mxCell>
                <mxCell id="175" value="" style="ellipse;whiteSpace=wrap;html=1;aspect=fixed;" vertex="1" parent="174">
                    <mxGeometry width="90" height="90" as="geometry"/>
                </mxCell>
                <mxCell id="176" value="q5" style="ellipse;whiteSpace=wrap;html=1;aspect=fixed;" vertex="1" parent="174">
                    <mxGeometry x="5" y="5" width="80" height="80" as="geometry"/>
                </mxCell>
                <mxCell id="177" value="1" style="edgeStyle=none;html=1;" edge="1" parent="174" source="176" target="176">
                    <mxGeometry x="-0.3244" y="5" relative="1" as="geometry">
                        <mxPoint as="offset"/>
                    </mxGeometry>
                </mxCell>
                <mxCell id="178" value="" style="group" vertex="1" connectable="0" parent="1">
                    <mxGeometry x="620" y="440" width="90" height="90" as="geometry"/>
                </mxCell>
                <mxCell id="179" value="" style="ellipse;whiteSpace=wrap;html=1;aspect=fixed;" vertex="1" parent="178">
                    <mxGeometry width="90" height="90" as="geometry"/>
                </mxCell>
                <mxCell id="180" value="q6" style="ellipse;whiteSpace=wrap;html=1;aspect=fixed;" vertex="1" parent="178">
                    <mxGeometry x="5" y="5" width="80" height="80" as="geometry"/>
                </mxCell>
                <mxCell id="181" value="2, 3" style="edgeStyle=none;html=1;" edge="1" parent="1" source="184" target="180">
                    <mxGeometry x="0.0024" relative="1" as="geometry">
                        <mxPoint as="offset"/>
                    </mxGeometry>
                </mxCell>
                <mxCell id="182" style="edgeStyle=none;html=1;" edge="1" parent="1" source="184" target="176">
                    <mxGeometry relative="1" as="geometry"/>
                </mxCell>
                <mxCell id="183" value="1" style="edgeLabel;html=1;align=center;verticalAlign=middle;resizable=0;points=[];" vertex="1" connectable="0" parent="182">
                    <mxGeometry x="-0.2803" relative="1" as="geometry">
                        <mxPoint as="offset"/>
                    </mxGeometry>
                </mxCell>
                <mxCell id="184" value="q2" style="ellipse;whiteSpace=wrap;html=1;aspect=fixed;" vertex="1" parent="1">
                    <mxGeometry x="560" y="310" width="80" height="80" as="geometry"/>
                </mxCell>
                <mxCell id="185" value="1" style="edgeStyle=none;html=1;" edge="1" parent="1" source="186" target="191">
                    <mxGeometry relative="1" as="geometry"/>
                </mxCell>
                <mxCell id="186" value="q7" style="ellipse;whiteSpace=wrap;html=1;aspect=fixed;" vertex="1" parent="1">
                    <mxGeometry x="625" y="580" width="80" height="80" as="geometry"/>
                </mxCell>
                <mxCell id="187" value="2, 3" style="edgeStyle=none;html=1;" edge="1" parent="1" source="180" target="186">
                    <mxGeometry relative="1" as="geometry"/>
                </mxCell>
                <mxCell id="188" style="edgeStyle=none;html=1;" edge="1" parent="1" source="191" target="176">
                    <mxGeometry relative="1" as="geometry"/>
                </mxCell>
                <mxCell id="189" value="1" style="edgeLabel;html=1;align=center;verticalAlign=middle;resizable=0;points=[];" vertex="1" connectable="0" parent="188">
                    <mxGeometry x="-0.2364" y="2" relative="1" as="geometry">
                        <mxPoint as="offset"/>
                    </mxGeometry>
                </mxCell>
                <mxCell id="190" value="2, 3" style="edgeStyle=none;html=1;" edge="1" parent="1" source="191" target="180">
                    <mxGeometry relative="1" as="geometry">
                        <Array as="points">
                            <mxPoint x="610" y="560"/>
                        </Array>
                    </mxGeometry>
                </mxCell>
                <mxCell id="191" value="q8" style="ellipse;whiteSpace=wrap;html=1;aspect=fixed;" vertex="1" parent="1">
                    <mxGeometry x="495" y="580" width="80" height="80" as="geometry"/>
                </mxCell>
                <mxCell id="192" style="edgeStyle=none;html=1;" edge="1" parent="1" source="180" target="191">
                    <mxGeometry relative="1" as="geometry">
                        <Array as="points">
                            <mxPoint x="590" y="550"/>
                        </Array>
                    </mxGeometry>
                </mxCell>
                <mxCell id="193" value="1" style="edgeLabel;html=1;align=center;verticalAlign=middle;resizable=0;points=[];" vertex="1" connectable="0" parent="192">
                    <mxGeometry x="-0.1915" y="-2" relative="1" as="geometry">
                        <mxPoint y="1" as="offset"/>
                    </mxGeometry>
                </mxCell>
                <mxCell id="194" value="2, 3" style="edgeStyle=none;html=1;" edge="1" parent="1" source="176" target="180">
                    <mxGeometry relative="1" as="geometry">
                        <Array as="points">
                            <mxPoint x="600" y="450"/>
                        </Array>
                    </mxGeometry>
                </mxCell>
                <mxCell id="196" value="1, 3" style="edgeStyle=none;html=1;elbow=vertical;" edge="1" parent="1" source="161" target="161">
                    <mxGeometry y="15" relative="1" as="geometry">
                        <mxPoint as="offset"/>
                    </mxGeometry>
                </mxCell>
                <mxCell id="199" value="2, 3" style="edgeStyle=none;html=1;" edge="1" parent="1" source="186" target="186">
                    <mxGeometry y="15" relative="1" as="geometry">
                        <mxPoint as="offset"/>
                    </mxGeometry>
                </mxCell>
            </root>
        </mxGraphModel>
    </diagram>
</mxfile>